Patient4_TMGait_0pt7_01_left_02_EMG.mot
version=1
nRows=27
nColumns=33
inDegrees=no
endheader
time	1LAddLong	2LGlutMax	3LGlutMed	4LIliopsoas	5LSemiMemb	6LBicFemLong	7LRecFem	8LVastMed	9LVastLat	10LGasMed	11LTibAnt	12lTibPost	13LPeroneusLong	14LSol	15LExtDigLong	16LFlexDigLong	17RAddLong	18RGlutMax	19RGlutMed	20RIliopsoas	21RSemiMemb	22RBicFemLong	23RRecFem	24RVastMed	25RVastLat	26RGasMed	27RTibAnt	28RTibPost	29RPeroneusLong	30RSol	31RExtDigLong	32RFlexDigLong
3.1	0.011597	-0.069275	-0.048676	0.009613	-0.037384	-0.014343	-0.24948	-0.002289	0.092316	-0.037231	0.12802	-0.005188	-0.057068	0.079498	0.40726	-0.000153	0.03891	0.074463	-0.069275	-0.15015	0.08316	-0.37201	-0.1265	-0.60501	-0.26657	-0.013275	-0.004883	-0.000153	-0.05661	0.046387	-0.003357	0.002899
3.101	0.024414	-0.026855	-0.011902	0.006561	-0.008698	-0.0383	-0.27527	0.002594	0.083313	-0.015411	-0.070496	0.002289	-0.1149	0.045013	-0.29846	0.001678	0.082245	0.16327	0.13779	-0.24521	-0.040894	-0.23514	-0.29587	-0.99426	0.10101	-0.013275	0.010376	-0.005646	-0.27405	0.03479	-0.002441	-0.000458
3.102	0.018311	-0.045929	0.0177	0.003815	0.042114	-0.058746	-0.28397	0	0.093079	-0.055695	-0.083008	-0.007477	-0.034637	0.049896	-0.56168	0.005341	0.11093	0.038605	0.24551	-0.18646	0.004272	-0.21515	-0.37109	-1.18	0.36362	-0.01297	-0.00473	-0.003357	-0.016022	0.013275	0.002899	0.000916
3.103	0.002289	0.010529	0.059052	-0.007172	0.02594	0.013428	-0.2504	-0.00946	0.067444	-0.010529	-0.047302	-0.003662	-0.042267	-0.045776	-0.37399	-0.001678	0.068054	-0.065155	0.42206	-0.038757	0.22476	-0.16159	-0.38193	-0.66513	0.51666	0.000305	0.057526	-0.004578	0.098724	-0.029755	0.000305	0.002289
3.104	0.060425	0.012817	0.069275	-0.004578	-0.004883	0.03952	-0.2301	-0.001221	0.032654	0.006866	-0.093079	-0.006256	-0.084839	-0.065918	-0.10956	0.01236	0.012207	-0.2655	0.63873	0.032196	0.18723	-0.19012	-0.15839	-0.57785	0.19287	0.006409	0.14694	-0.010223	0.075684	-0.072021	-0.005341	0.003052
3.105	-0.004272	-0.005798	0.083923	-0.013733	-0.016785	-0.020905	-0.20721	0.000153	0.01297	0.032196	-0.081482	-0.001221	-0.09201	-0.048523	0.083618	0.010834	-0.010376	-0.36774	0.47012	0.19577	0.33707	-0.074158	-0.080566	-0.52231	-0.023041	-0.000763	0.27329	-0.006256	0.16068	-0.062714	-0.002594	0.002289
3.106	0.015106	0.008698	0.10773	0.012207	-0.013275	-0.10376	-0.1915	-0.005341	0.014191	0.016632	0.011597	0.006714	-0.09201	0.1033	-0.062256	0.006866	0.020599	-0.39291	0.74738	0.25299	0.41687	0.02655	-0.28153	-0.63309	-0.15747	-0.001068	0.49576	-0.00824	0.24597	-0.070648	-0.000916	-0.00824
3.107	0.004272	-0.028839	0.1149	0.010223	0.020905	-0.15976	-0.15808	0	-0.008545	-0.017548	0.030212	0.001678	-0.050812	0.12543	-0.051575	-0.003357	-0.024719	-0.44083	0.3212	0.16495	0.20889	-0.040436	-0.22537	-0.50858	-0.16846	-0.006866	0.49561	-0.007477	0.1474	-0.09079	-0.005341	-0.01358
3.108	0.000458	-0.02594	0.11536	0.017395	0.021973	-0.1059	-0.15961	-0.001678	-0.025787	0.009918	0.019989	-0.009918	-0.053406	0.041656	-0.24719	-0.008698	-0.012054	-0.67978	0.10376	0.053253	0.18494	-0.029449	-0.2092	-0.21942	-0.21652	-0.004425	0.50079	-0.00824	0.091553	-0.077972	-0.003357	-0.010223
3.109	-0.001526	0.001984	0.11917	0.002441	0.030823	-0.096436	-0.14404	-0.003052	-0.040436	-0.00946	0.050964	0.001221	-0.092926	0.043335	-0.16525	-0.027618	0.010071	-0.66773	0.12405	-0.073395	0.28198	-0.093231	-0.11948	-0.12177	-0.19196	-0.00412	0.14191	-0.009918	0.045166	-0.12268	-0.003052	-0.007019
3.11	-0.000153	0.021667	0.13168	-0.001526	0.023499	-0.1593	-0.18509	0.003357	-0.043488	-0.038757	0.080261	-0.004272	-0.057678	0.057678	-0.065765	-0.013123	0.048218	-0.72555	0.12833	-0.072937	0.15274	-0.15732	-0.06073	0.13077	-0.079346	-0.006714	-0.25971	-0.008545	0.04776	-0.15472	-0.002747	-0.007019
3.111	-0.02121	0.010681	0.14542	-0.005493	0.009918	-0.066376	-0.13901	0.03418	-0.051727	-0.031281	0.01358	-0.00061	0.029755	0.039368	0.003052	0.00412	0.093231	-0.87326	-0.028992	0.020599	-0.042419	-0.28168	-0.061188	0.18967	0.51483	0.001678	-0.30609	-0.005035	0.14801	-0.14084	-0.000916	0.002289
3.112	-0.014343	0.000153	0.15091	0.005341	0.010681	0.014038	-0.13351	0.011597	-0.055847	-0.017395	0.097198	0.018463	-0.029602	0.054474	0.87814	-0.00412	0.12085	-0.94711	-0.089874	0.14267	-0.18127	-0.21668	-0.15518	0.12848	0.62332	0.014496	-0.55893	-0.005493	0.25589	-0.19684	-0.001526	0.007629
3.113	-0.012665	-0.009308	0.14252	-0.000916	-0.015259	0.10407	-0.13992	0.014648	-0.067139	-0.029907	0.026398	-0.004425	-0.012207	0.059967	0.55389	0.004425	0.065308	-0.91614	-0.33417	0.21042	-0.2121	-0.13016	-0.43518	0.070953	0.61691	0.003967	-0.77057	0.006866	0.20676	-0.24857	-0.003052	0.005341
3.114	-0.010223	-0.007629	0.14175	-0.00412	-0.011292	0.103	-0.12924	0.005188	-0.076904	0.000305	0.19928	-0.002594	-0.095062	0.086823	0.17288	-0.011902	-0.006714	-0.86044	-0.25162	0.14282	-0.038605	-0.24765	-0.48874	0.072632	0.39475	0.001526	-0.48889	-0.005341	0.10727	-0.21912	0.000763	-0.00061
3.115	-0.002594	-0.001678	0.15213	0.000153	-0.005646	-0.015411	-0.14114	0.00351	-0.074158	0.002747	0.54001	0.005035	-0.13412	0.11978	-0.21011	-0.00061	-0.032654	-0.73822	-0.28168	0.005341	0.098267	-0.22385	-0.33585	0.14038	0.1799	0.002747	-0.15121	-0.003815	0.11017	-0.17181	-0.001984	-0.006409
3.116	-0.002899	-0.001678	0.1442	-0.013428	0.003815	-0.059357	-0.16312	0.004578	-0.07782	-0.011902	0.11826	0.00061	-0.078583	0.15457	0.23086	-0.002747	-0.05661	-0.63294	-0.16205	-0.054169	-0.016937	0.004883	-0.28763	0.35751	-0.03891	-0.003815	0.15167	-0.00351	0.06958	-0.048981	-0.002441	-0.008698
3.117	-0.000153	0.010529	0.1442	-0.016785	0.00824	-0.076599	-0.17593	0.005035	-0.070801	-0.039978	-0.44815	0.006866	-0.003815	0.19638	0.53268	0.005951	0.056458	-0.56351	-0.42404	-0.072021	-0.042572	-0.089417	-0.19516	0.23346	-0.18936	-0.013428	0.37186	-0.007019	0.00351	0.057831	-0.003815	-0.008392
3.118	0.000153	0.028839	0.15503	0.015411	-0.005493	-0.003357	-0.18433	0.001221	-0.071869	-0.030518	-0.16815	0.001373	-0.010529	0.14862	0.5693	0.000153	0.090485	-0.38666	-0.88333	-0.088348	-0.10681	-0.10117	-0.13168	0.52719	0.43457	-0.009613	0.31632	0.00351	0.12238	0.075684	-0.003052	-0.012512
3.119	0.012512	0.030518	0.15717	0.00946	-0.030365	0.10696	-0.16327	0.001984	-0.07843	-0.035095	0.025635	-0.000916	-0.023651	0.1532	-0.34058	0.000458	0.049896	-0.19684	-0.99518	-0.12085	-0.077209	-0.046997	0.12344	0.62347	0.90027	0.000305	0.21469	-0.003357	0.26627	-0.005951	-0.005798	-0.006256
3.12	0.013123	0.061493	0.14679	0.023193	-0.032349	0.13565	-0.16617	-0.001678	-0.052948	-0.048828	0.19882	-0.010834	0.018311	0.15152	-0.72769	-0.008698	-0.038147	-0.1648	-0.32669	-0.075836	-0.33096	0.14175	0.043945	0.70648	0.63995	-0.002136	0.17609	0.002899	0.20935	-0.084076	-0.005341	0.000458
3.121	0.009613	0.054169	0.14679	0.01709	-0.039215	0.073242	-0.18082	0.007935	-0.051575	-0.082703	-0.08728	-0.007935	0.14786	0.17242	-0.98633	-0.013123	-0.1091	-0.20752	0.34698	0.024109	0.070038	0.074158	-0.026703	0.6546	-0.032043	0.013275	0.19058	-0.002594	-0.42938	-0.042725	-0.005493	-0.001526
3.122	0.014343	0.03952	0.15411	0.013885	-0.048065	0.021667	-0.14877	0.003967	-0.056458	-0.050812	-0.32577	0.004578	0.059967	0.096893	-0.60638	-0.020294	-0.10849	-0.27222	0.34531	0.051422	0.59509	-0.13947	0.034485	0.44998	-0.66009	-0.009613	0.21851	0.001373	-0.088348	0.073547	-0.00061	-0.010071
3.123	0.014648	0.05127	0.13718	0.01297	-0.024109	-0.0354	-0.16022	0.00473	-0.06134	-0.055084	-0.23834	0.005035	-0.030212	0.028992	-0.050964	0.003204	-0.056915	-0.33417	0.11978	0.092316	0.53421	-0.10468	0.073242	0.42053	-0.90103	-0.006409	0.22583	-0.000305	-0.014648	0.016785	-0.003357	-0.007782
3.124	0.011597	0.054626	0.15182	0.01236	-0.035095	-0.034943	-0.13626	0.007629	-0.050354	-0.056	-0.027771	0.001831	-0.028534	-0.024414	0.1329	0.001831	0.002747	-0.26154	-0.29709	0.054016	0.40283	-0.066833	0.28427	0.7164	-0.91446	-0.005951	0.10712	0.000305	-0.033875	-0.032806	-0.003967	-0.009308
3.125	0.028076	0.063019	0.1474	0.001068	-0.047607	-0.088654	-0.13962	-0.002441	-0.047302	-0.09079	0.072021	0.004272	0.001678	-0.042267	0.095367	-0.001831	0.11826	-0.13809	0.055542	-0.028229	0.22125	-0.10056	0.21149	0.52826	-1.0718	0.002136	0.11169	-0.000458	0.025177	-0.068817	-0.003052	-0.006561
3.126	0.021973	0.046997	0.15762	0.013733	-0.000458	-0.097351	-0.13397	0.007019	-0.038452	-0.063782	-0.04425	0.007629	0.013123	-0.15671	0.035706	-0.007019	0.17334	-0.1004	0.59845	-0.16907	0.041656	-0.09964	-0.040436	-0.32883	-0.9494	0.005341	-0.79269	0.000305	0.16693	-0.1059	-0.009155	0.001221
